<svg aria-hidden="true" style="position:absolute;width:0;height:0" xmlns="http://www.w3.org/2000/svg" overflow="hidden"><defs><symbol id="checkbox" viewBox="0 0 24 24"><path d="M4 6l9.652.014 1.178-2L2 4v10l2-2V6zm0 14c-.039-.068.023-2.403.023-3.006A5062.721 5062.721 0 012 14v8l5.738.014-1.342-1.986C5.614 20.027 4.398 20 4 20zm15 0l-5.941.014-1.178 2L21 22V8l-2 2v10zm-.986-18.5l-8.25 14.025-2.289-4.004-3.473 1.984L9.713 23.5 21.461 3.527 18.014 1.5z"/></symbol><symbol id="telegram" viewBox="0 0 32 32"><path d="M16 0C7.162 0 0 7.162 0 16s7.162 16 16 16 16-7.163 16-16S24.837 0 16 0zm7.863 10.969l-2.625 12.369c-.181.881-.712 1.087-1.45.681l-4-2.956-1.919 1.869c-.225.219-.4.4-.8.4-.519 0-.431-.194-.606-.688L11.1 18.169l-3.956-1.231c-.856-.262-.862-.85.194-1.269l15.412-5.95c.7-.319 1.381.169 1.113 1.25z"/></symbol><symbol id="location" viewBox="0 0 32 32"><path d="M16.002 17.746c3.309 0 6-2.692 6-6s-2.691-6-6-6-6 2.691-6 6 2.691 6 6 6zm0-11c2.758 0 5 2.242 5 5s-2.242 5-5 5-5-2.242-5-5 2.242-5 5-5zM16 0C9.382 0 4 5.316 4 12.001c0 7 6.001 14.161 10.376 19.194.016.02.718.805 1.586.805h.077c.867 0 1.57-.785 1.586-.805 4.377-5.033 10.377-12.193 10.377-19.194A11.971 11.971 0 0016 0zm.117 29.883c-.021.02-.082.064-.135.098-.01-.027-.084-.086-.129-.133C12.188 25.631 6 18.514 6 12.001 6 6.487 10.487 2 16 2c5.516 0 10.002 4.487 10.002 10.002 0 6.512-6.188 13.629-9.885 17.881z"/></symbol><symbol id="email" viewBox="0 0 32 32"><path d="M29 4H3C1.35 4 0 5.35 0 7v20c0 1.65 1.35 3 3 3h26c1.65 0 3-1.35 3-3V7c0-1.65-1.35-3-3-3zM12.461 17.199L4 23.789V8.113l8.461 9.086zM5.512 8h20.976L16 15.875 5.512 8zm7.278 9.553L16 21l3.21-3.447L25.79 26H6.211l6.58-8.447zm6.749-.354L28 8.113v15.676l-8.461-6.59z"/></symbol><symbol id="github" viewBox="0 0 32 32"><path d="M16 .395c-8.836 0-16 7.163-16 16 0 7.069 4.585 13.067 10.942 15.182.8.148 1.094-.347 1.094-.77 0-.381-.015-1.642-.022-2.979-4.452.968-5.391-1.888-5.391-1.888-.728-1.849-1.776-2.341-1.776-2.341-1.452-.993.11-.973.11-.973 1.606.113 2.452 1.649 2.452 1.649 1.427 2.446 3.743 1.739 4.656 1.33.143-1.034.558-1.74 1.016-2.14-3.554-.404-7.29-1.777-7.29-7.907 0-1.747.625-3.174 1.649-4.295-.166-.403-.714-2.03.155-4.234 0 0 1.344-.43 4.401 1.64a15.353 15.353 0 014.005-.539c1.359.006 2.729.184 4.008.539 3.054-2.07 4.395-1.64 4.395-1.64.871 2.204.323 3.831.157 4.234 1.026 1.12 1.647 2.548 1.647 4.295 0 6.145-3.743 7.498-7.306 7.895.574.497 1.085 1.47 1.085 2.963 0 2.141-.019 3.864-.019 4.391 0 .426.288.925 1.099.768C27.421 29.457 32 23.462 32 16.395c0-8.837-7.164-16-16-16z"/></symbol><symbol id="linkedin" viewBox="0 0 32 32"><path d="M29 0H3C1.35 0 0 1.35 0 3v26c0 1.65 1.35 3 3 3h26c1.65 0 3-1.35 3-3V3c0-1.65-1.35-3-3-3zM12 26H8V12h4v14zm-2-16c-1.106 0-2-.894-2-2s.894-2 2-2c1.106 0 2 .894 2 2s-.894 2-2 2zm16 16h-4v-8c0-1.106-.894-2-2-2s-2 .894-2 2v8h-4V12h4v2.481C18.825 13.35 20.087 12 21.5 12c2.488 0 4.5 2.238 4.5 5v9z"/></symbol><symbol id="mobile" viewBox="0 0 32 32"><path d="M23 0H9C7.35 0 6 1.35 6 3v26c0 1.65 1.35 3 3 3h14c1.65 0 3-1.35 3-3V3c0-1.65-1.35-3-3-3zM12 1.5h8v1h-8v-1zM16 30a2 2 0 11-.001-3.999A2 2 0 0116 30zm8-6H8V4h16v20z"/></symbol><symbol id="folder-checked" viewBox="0 0 32 32"><path d="M21.022 27H1.993A1.996 1.996 0 010 25.009V14h29v3.498A6.5 6.5 0 0021.022 27zM0 13V6.991C0 5.89.897 5 2.003 5H13l2 4h11.994A2 2 0 0129 10.995V13H0zm26.5 16a5.5 5.5 0 100-11 5.5 5.5 0 100 11zm-.5-2.757l-2.354-2.354.732-.732 1.621 1.621 3.121-3.121.732.732-3.854 3.854z"/></symbol><symbol id="one-finger-click" viewBox="0 0 32 32">
<path d="M13 1v4h1v-4h-1zM19.403 3.578l-3.109 2.516 0.628 0.778 3.109-2.519c0.003 0-0.628-0.775-0.628-0.775zM21.409 10.313l-3.897-0.9-0.225 0.975 3.897 0.9 0.225-0.975zM5.819 11.287l3.897-0.9-0.225-0.975-3.897 0.9 0.225 0.975zM6.969 4.353l3.109 2.519 0.628-0.778-3.109-2.519-0.628 0.778zM19 13.491c0-0.822-0.666-1.491-1.5-1.491-0.828 0-1.5 0.675-1.5 1.491v4.509h-1v-9.491c0-0.834-0.666-1.509-1.5-1.509-0.828 0-1.5 0.666-1.5 1.509v10.291c-2.059-2.2-4.769-4.619-5.878-3.503-1.087 1.094 1.716 4.106 5.625 10.688 1.766 2.966 3.994 5.016 7.753 5.016 4.141 0 7.5-3.359 7.5-7.5v-7.994c0-0.831-0.666-1.506-1.5-1.506-0.828 0-1.5 0.675-1.5 1.506v2.494h-1v-3.509c0-0.825-0.666-1.491-1.5-1.491-0.828 0-1.5 0.662-1.5 1.491v2.509h-1v-3.509z"></path>
</symbol><symbol id="icon-dot" viewBox="0 0 32 32">
<path d="M16 8c-4.4 0-8 3.6-8 8s3.6 8 8 8 8-3.6 8-8-3.6-8-8-8z"></path>
<path d="M16 2c7.8 0 14 6.2 14 14s-6.2 14-14 14-14-6.2-14-14 6.2-14 14-14zM16 0c-8.8 0-16 7.2-16 16s7.2 16 16 16 16-7.2 16-16-7.2-16-16-16z"></path>
</symbol></defs></svg>