<svg aria-hidden="true" style="position:absolute;width:0;height:0" xmlns="http://www.w3.org/2000/svg" overflow="hidden"><defs><symbol id="checkbox" viewBox="0 0 24 24"><path d="M4 6l9.652.014 1.178-2L2 4v10l2-2V6zm0 14c-.039-.068.023-2.403.023-3.006A5062.721 5062.721 0 012 14v8l5.738.014-1.342-1.986C5.614 20.027 4.398 20 4 20zm15 0l-5.941.014-1.178 2L21 22V8l-2 2v10zm-.986-18.5l-8.25 14.025-2.289-4.004-3.473 1.984L9.713 23.5 21.461 3.527 18.014 1.5z"/></symbol><symbol id="telegram" viewBox="0 0 32 32"><path d="M16 0C7.162 0 0 7.162 0 16s7.162 16 16 16 16-7.163 16-16S24.837 0 16 0zm7.863 10.969l-2.625 12.369c-.181.881-.712 1.087-1.45.681l-4-2.956-1.919 1.869c-.225.219-.4.4-.8.4-.519 0-.431-.194-.606-.688L11.1 18.169l-3.956-1.231c-.856-.262-.862-.85.194-1.269l15.412-5.95c.7-.319 1.381.169 1.113 1.25z"/></symbol><symbol id="location" viewBox="0 0 32 32"><path d="M16.002 17.746c3.309 0 6-2.692 6-6s-2.691-6-6-6-6 2.691-6 6 2.691 6 6 6zm0-11c2.758 0 5 2.242 5 5s-2.242 5-5 5-5-2.242-5-5 2.242-5 5-5zM16 0C9.382 0 4 5.316 4 12.001c0 7 6.001 14.161 10.376 19.194.016.02.718.805 1.586.805h.077c.867 0 1.57-.785 1.586-.805 4.377-5.033 10.377-12.193 10.377-19.194A11.971 11.971 0 0016 0zm.117 29.883c-.021.02-.082.064-.135.098-.01-.027-.084-.086-.129-.133C12.188 25.631 6 18.514 6 12.001 6 6.487 10.487 2 16 2c5.516 0 10.002 4.487 10.002 10.002 0 6.512-6.188 13.629-9.885 17.881z"/></symbol><symbol id="email" viewBox="0 0 32 32"><path d="M29 4H3C1.35 4 0 5.35 0 7v20c0 1.65 1.35 3 3 3h26c1.65 0 3-1.35 3-3V7c0-1.65-1.35-3-3-3zM12.461 17.199L4 23.789V8.113l8.461 9.086zM5.512 8h20.976L16 15.875 5.512 8zm7.278 9.553L16 21l3.21-3.447L25.79 26H6.211l6.58-8.447zm6.749-.354L28 8.113v15.676l-8.461-6.59z"/></symbol><symbol id="github" viewBox="0 0 32 32"><path d="M16 .395c-8.836 0-16 7.163-16 16 0 7.069 4.585 13.067 10.942 15.182.8.148 1.094-.347 1.094-.77 0-.381-.015-1.642-.022-2.979-4.452.968-5.391-1.888-5.391-1.888-.728-1.849-1.776-2.341-1.776-2.341-1.452-.993.11-.973.11-.973 1.606.113 2.452 1.649 2.452 1.649 1.427 2.446 3.743 1.739 4.656 1.33.143-1.034.558-1.74 1.016-2.14-3.554-.404-7.29-1.777-7.29-7.907 0-1.747.625-3.174 1.649-4.295-.166-.403-.714-2.03.155-4.234 0 0 1.344-.43 4.401 1.64a15.353 15.353 0 014.005-.539c1.359.006 2.729.184 4.008.539 3.054-2.07 4.395-1.64 4.395-1.64.871 2.204.323 3.831.157 4.234 1.026 1.12 1.647 2.548 1.647 4.295 0 6.145-3.743 7.498-7.306 7.895.574.497 1.085 1.47 1.085 2.963 0 2.141-.019 3.864-.019 4.391 0 .426.288.925 1.099.768C27.421 29.457 32 23.462 32 16.395c0-8.837-7.164-16-16-16z"/></symbol><symbol id="linkedin" viewBox="0 0 32 32"><path d="M29 0H3C1.35 0 0 1.35 0 3v26c0 1.65 1.35 3 3 3h26c1.65 0 3-1.35 3-3V3c0-1.65-1.35-3-3-3zM12 26H8V12h4v14zm-2-16c-1.106 0-2-.894-2-2s.894-2 2-2c1.106 0 2 .894 2 2s-.894 2-2 2zm16 16h-4v-8c0-1.106-.894-2-2-2s-2 .894-2 2v8h-4V12h4v2.481C18.825 13.35 20.087 12 21.5 12c2.488 0 4.5 2.238 4.5 5v9z"/></symbol><symbol id="mobile" viewBox="0 0 32 32"><path d="M23 0H9C7.35 0 6 1.35 6 3v26c0 1.65 1.35 3 3 3h14c1.65 0 3-1.35 3-3V3c0-1.65-1.35-3-3-3zM12 1.5h8v1h-8v-1zM16 30a2 2 0 11-.001-3.999A2 2 0 0116 30zm8-6H8V4h16v20z"/></symbol><symbol id="git" viewBox="0 0 32 32"><path fill="var(--color1, #f05133)" d="M31.398 14.574L17.425.604a2.06 2.06 0 00-2.914 0L11.61 3.505l3.68 3.68a2.445 2.445 0 013.099 3.12l3.547 3.547a2.448 2.448 0 012.534 4.047 2.453 2.453 0 01-4.003-2.667l-3.308-3.308v8.706a2.453 2.453 0 11-2.818 3.933 2.453 2.453 0 01.802-4.003v-8.787a2.448 2.448 0 01-1.331-3.214l-3.63-3.63-9.579 9.582a2.06 2.06 0 000 2.914l13.973 13.973a2.06 2.06 0 002.914 0l13.907-13.905a2.066 2.066 0 000-2.919zm0 0z"/></symbol><symbol id="webpack" viewBox="0 0 29 32"><path fill="var(--color2, #8ed6fb)" d="M27.966 24.664L14.997 32v-5.714l8.073-4.445 4.896 2.82zm.888-.805V8.518l-4.745 2.742v9.862l4.745 2.737zm-27.966.805L13.857 32v-5.714l-8.073-4.445-4.896 2.823zM0 23.859V8.518l4.745 2.742v9.862L0 23.859zM.557 7.523L13.856 0v5.521l-8.591 4.724L.557 7.524zm27.74 0L14.998 0v5.521l8.591 4.727 4.708-2.721z"/><path fill="var(--color3, #1c78c0)" d="M13.857 25l-7.974-4.401v-8.685l7.974 4.604V25zm1.14 0l7.974-4.396v-8.69l-7.974 4.604V25zM6.422 10.938l8.005-4.427 8.005 4.401-8.005 4.62-8.005-4.62z"/></symbol><symbol id="folder-checked" viewBox="0 0 32 32"><path d="M21.022 27H1.993A1.996 1.996 0 010 25.009V14h29v3.498A6.5 6.5 0 0021.022 27zM0 13V6.991C0 5.89.897 5 2.003 5H13l2 4h11.994A2 2 0 0129 10.995V13H0zm26.5 16a5.5 5.5 0 100-11 5.5 5.5 0 100 11zm-.5-2.757l-2.354-2.354.732-.732 1.621 1.621 3.121-3.121.732.732-3.854 3.854z"/></symbol><symbol id="mongodb" viewBox="0 0 14 32"><path fill="var(--color4, #599636)" d="M7.087.088l.854 1.604c.192.296.4.558.645.802A22.406 22.406 0 0110.59 4.76c1.447 1.9 2.423 4.01 3.12 6.291.418 1.394.645 2.824.662 4.27.07 4.323-1.412 8.034-4.399 11.119a12.7 12.7 0 01-1.57 1.342c-.296 0-.436-.227-.558-.436a3.589 3.589 0 01-.436-1.255c-.105-.523-.174-1.046-.14-1.586v-.244C7.245 24.209 6.984.211 7.088.088z"/><path fill="var(--color5, #6cac48)" d="M7.087.034c-.035-.07-.07-.017-.105.017.017.35-.105.662-.296.96-.21.296-.488.523-.767.767-1.55 1.342-2.77 2.963-3.747 4.776-1.3 2.44-1.97 5.054-2.16 7.807-.087.993.314 4.497.627 5.508.854 2.684 2.388 4.933 4.375 6.884.488.47 1.01.906 1.55 1.325.157 0 .174-.14.21-.244.068-.223.121-.45.157-.68l.35-2.614L7.087.034z"/><path fill="var(--color6, #c2bfbf)" d="M7.94 28.843c.035-.4.227-.732.436-1.063-.21-.087-.366-.26-.488-.453a3.235 3.235 0 01-.26-.575c-.244-.732-.296-1.5-.366-2.248v-.453c-.087.07-.105.662-.105.75a17.269 17.269 0 01-.314 2.353c-.052.314-.087.627-.28.906 0 .035 0 .07.017.122.314.924.4 1.865.453 2.824v.35c0 .418-.017.33.33.47.14.052.296.07.436.174.105 0 .122-.087.122-.157l-.052-.575v-1.604c-.017-.28.035-.558.07-.82l.001-.001z"/></symbol><symbol id="node-js" viewBox="0 0 28 32"><path fill="var(--color7, #689f63)" d="M17.82 22.677c-5.13 0-6.206-2.354-6.206-4.331 0-.188.151-.339.339-.339h1.516c.167 0 .307.122.333.286.229 1.544.909 2.323 4.013 2.323 2.471 0 3.521-.557 3.521-1.87 0-.755-.299-1.315-4.138-1.69-3.211-.318-5.195-1.023-5.195-3.594 0-2.365 1.995-3.773 5.339-3.773 3.755 0 5.615 1.302 5.849 4.104a.34.34 0 01-.341.369h-1.521a.335.335 0 01-.328-.263c-.367-1.622-1.253-2.143-3.664-2.143-2.698 0-3.01.94-3.01 1.643 0 .854.37 1.104 4.01 1.586 3.604.479 5.315 1.154 5.315 3.688 0 2.555-2.13 4.018-5.846 4.018l.016-.016zM14.198 32c-.43 0-.854-.112-1.229-.328l-3.914-2.318c-.586-.328-.299-.443-.107-.51.779-.273.938-.333 1.771-.807.089-.049.203-.031.292.021l3.008 1.784c.109.06.263.06.365 0l11.727-6.768a.372.372 0 00.18-.318V9.227a.376.376 0 00-.182-.323L14.385 2.141a.36.36 0 00-.362 0L2.304 8.904a.37.37 0 00-.185.32v13.531c0 .13.07.253.182.315l3.211 1.854c1.742.872 2.81-.156 2.81-1.188V10.379c0-.19.148-.339.341-.339h1.484c.185 0 .339.146.339.339v13.362c0 2.326-1.268 3.659-3.471 3.659-.677 0-1.214 0-2.703-.734l-3.081-1.773a2.475 2.475 0 01-1.229-2.138V9.224c0-.88.469-1.703 1.229-2.138L12.968.315a2.576 2.576 0 012.466 0l11.724 6.773a2.471 2.471 0 011.229 2.138v13.531c0 .878-.471 1.695-1.229 2.138l-11.724 6.771a2.475 2.475 0 01-1.234.328v.005zm0 0z"/></symbol><symbol id="expressjs" viewBox="0 0 55 32"><path d="M55.157 31.17c-2.006.51-3.247.022-4.361-1.649l-7.919-10.955-1.145-1.517-9.247 12.509c-1.057 1.505-2.165 2.159-4.137 1.627l11.841-15.896L29.165.931c1.896-.369 3.206-.181 4.369 1.517l8.213 11.092 8.274-11.032c1.06-1.505 2.2-2.077 4.102-1.522l-4.275 5.667-5.791 7.541c-.69.862-.595 1.452.04 2.284l11.059 14.693zM.014 15.023l.968-4.764C3.619.83 14.426-3.087 21.88 2.738c4.356 3.426 5.438 8.274 5.223 13.703H2.551c-.369 9.773 6.666 15.671 15.633 12.662 3.146-1.057 4.998-3.52 5.926-6.601.471-1.544 1.249-1.786 2.701-1.344-.741 3.854-2.413 7.074-5.947 9.089-5.279 3.016-12.816 2.041-16.78-2.151-2.362-2.432-3.337-5.514-3.775-8.81-.069-.545-.207-1.064-.31-1.586.009-.892.014-1.783.014-2.675v-.002zm2.582-.655h22.187c-.145-7.067-4.545-12.086-10.559-12.129C7.623 2.187 2.882 7.087 2.596 14.368z"/></symbol><symbol id="figma" viewBox="0 0 21 32"><path fill="var(--color8, #0acf83)" d="M5.333 32a5.335 5.335 0 005.333-5.333v-5.333H5.333C2.39 21.334 0 23.722 0 26.667S2.391 32 5.333 32z"/><path fill="var(--color9, #a259ff)" d="M0 16a5.337 5.337 0 015.333-5.333h5.333v10.667H5.333A5.335 5.335 0 010 16.001z"/><path fill="var(--color10, #f24e1e)" d="M0 5.333A5.337 5.337 0 015.333 0h5.333v10.667H5.333A5.335 5.335 0 010 5.334z"/><path fill="var(--color11, #ff7262)" d="M10.667 0H16a5.333 5.333 0 010 10.666h-5.333V-.001z"/><path fill="var(--color12, #1abcfe)" d="M21.333 16a5.333 5.333 0 11-10.667 0 5.333 5.333 0 0110.667 0z"/></symbol><symbol id="rest-api" viewBox="0 0 39 32"><path d="M32.785 2.268a.656.656 0 00-.919-.121l-.804.609a5.215 5.215 0 00-1.164-.737l.15-1.091a.653.653 0 00-.558-.737L28.138.006a.658.658 0 00-.741.561l-.137.998a5.127 5.127 0 00-1.34.303l-.667-.877a.654.654 0 00-.915-.124l-1.088.826a.65.65 0 00-.124.912l.609.804c-.29.348-.539.74-.734 1.161l-1.091-.15a.656.656 0 00-.737.558l-.185 1.356v-.003a.653.653 0 00.557.74l.998.137c.041.462.144.912.303 1.34l-.877.667a.654.654 0 00-.124.915l.826 1.088a.654.654 0 00.915.124l.804-.609c.348.29.74.539 1.161.734l-.15 1.091v-.003a.655.655 0 00.558.74l1.352.185a.655.655 0 00.74-.558l.137-.998a5.14 5.14 0 001.343-.303l.667.877a.657.657 0 00.915.124l1.088-.826a.656.656 0 00.128-.915l-.612-.804c.293-.348.542-.737.737-1.161l1.087.15a.653.653 0 00.74-.558l.185-1.356a.655.655 0 00-.558-.737l-.998-.137a5.127 5.127 0 00-.303-1.34l.877-.667a.654.654 0 00.124-.915l-.826-1.088zM9.463 21.408v-5.263h2.711c.504 0 .887.041 1.151.131.265.086.482.246.641.478.163.236.246.52.246.855 0 .29-.064.545-.188.756a1.447 1.447 0 01-.514.517 1.939 1.939 0 01-.571.207c.195.067.335.128.421.195.061.045.147.137.258.277s.188.252.226.329l.791 1.521h-1.837l-.868-1.604c-.112-.207-.207-.344-.293-.405a.698.698 0 00-.399-.121h-.144v2.131H9.461v-.003zm5.735 9.163h-3.036L11.725 32H8.988l3.263-8.672h2.934L18.435 32h-2.807l-.431-1.429zm-.568-1.879l-.947-3.119-.95 3.119h1.898zm4.437-5.364h4.459c.973 0 1.7.23 2.182.692s.724 1.123.724 1.974c0 .877-.265 1.563-.791 2.057s-1.333.74-2.414.74h-1.47V32h-2.689v-8.672zm2.688 3.706h.66c.52 0 .887-.089 1.097-.271a.869.869 0 00.316-.689c0-.271-.093-.504-.274-.692s-.526-.284-1.03-.284h-.769v1.936zm5.761-3.706h2.689V32h-2.689v-8.672zm-16.42-5.046h.686c.073 0 .217-.026.431-.073a.43.43 0 00.265-.166.479.479 0 00.102-.306c0-.169-.054-.303-.163-.392-.108-.093-.309-.137-.606-.137h-.714v1.075zm3.853-2.137h4.354v1.123h-2.721v.839h2.523v1.072h-2.523v1.037h2.8v1.19h-4.433v-5.259zm4.819 3.521l1.544-.096c.032.252.102.44.204.571.169.21.408.319.718.319.23 0 .411-.054.536-.163s.188-.236.188-.38c0-.137-.061-.258-.179-.367s-.395-.207-.832-.306c-.711-.159-1.218-.373-1.525-.638s-.459-.603-.459-1.014c0-.271.08-.526.236-.765s.392-.431.708-.568c.316-.137.746-.204 1.295-.204.673 0 1.183.124 1.537.376.351.252.561.647.628 1.196l-1.528.093c-.041-.239-.128-.415-.255-.52-.131-.108-.313-.163-.539-.163-.188 0-.332.041-.427.121s-.144.179-.144.293c0 .083.041.156.118.226.077.067.255.134.542.195.711.153 1.222.309 1.528.466s.533.351.67.584c.14.23.21.491.21.778 0 .338-.093.647-.281.931-.185.284-.447.501-.781.647s-.756.22-1.266.22c-.893 0-1.515-.172-1.859-.517-.344-.351-.539-.788-.587-1.317zm5.011-3.521h4.947v1.301h-1.659v3.961H26.44v-3.961h-1.662v-1.301zm-5.473-12.49a10.33 10.33 0 00-1.8.023l.043-.003c-1.796.172-3.54.826-4.982 1.946-1.668 1.292-2.934 3.225-3.422 5.786l-.153.801-.797.14a10.91 10.91 0 00-2.092.565 7.04 7.04 0 00-1.585.848c-.37.268-.689.568-.96.893-.839 1.005-1.228 2.265-1.218 3.54a6.375 6.375 0 001.222 3.696l-.013-.018c.29.399.625.765 1.008 1.084a5.04 5.04 0 001.284.779l.033.012c.277.115.574.21.883.287v2.389a8.585 8.585 0 01-1.773-.514 7.406 7.406 0 01-1.93-1.158 8.243 8.243 0 01-1.403-1.505A8.775 8.775 0 01.002 18.2c-.013-1.805.549-3.601 1.761-5.055a7.55 7.55 0 011.384-1.289 9.296 9.296 0 012.118-1.132 12.84 12.84 0 011.754-.536C7.721 7.4 9.217 5.254 11.14 3.764c1.799-1.394 3.965-2.207 6.194-2.421a12.621 12.621 0 013.518.156c-.026.105-.048.21-.061.319l-.003.019c-.022.182-.032.364-.022.549a2.771 2.771 0 00-.683.386l-.01.006a2.858 2.858 0 00-.765.877zm16.875 6.124c.179.163.351.332.52.514.341.367.663.781.966 1.244 1.021 1.569 1.544 3.665 1.521 5.716-.022 2.013-.565 4.016-1.674 5.489-.724.96-1.652 1.745-2.765 2.367-.762.427-1.62.781-2.555 1.068v-2.472c.504-.188.973-.399 1.403-.638.839-.469 1.525-1.04 2.038-1.726.797-1.062 1.19-2.564 1.206-4.105.019-1.617-.376-3.241-1.145-4.421a6.612 6.612 0 00-1.018-1.222 3.13 3.13 0 00.013-.485c.246-.096.475-.226.683-.386l.01-.006c.328-.252.595-.564.79-.922l.008-.015zm-8.088-5.696a2.688 2.688 0 01-.731 5.327c-1.47-.201-2.501-1.556-2.296-3.027s1.556-2.501 3.027-2.3z"/></symbol><symbol id="css3" viewBox="0 0 32 32"><path fill="var(--color13, #1572b6)" d="M2 0h28l-2.547 28.751L15.969 32l-11.42-3.251zm22.787 5.884L7.214 5.88l.284 3.496 13.5.003-.34 3.621h-8.853l.32 3.431h8.243l-.488 4.697L16 22.2l-3.941-1.08-.251-2.813h-3.48l.387 5.14 7.287 2.271 7.164-2.04z"/></symbol><symbol id="html5" viewBox="0 0 32 32"><path fill="var(--color14, #e34f26)" d="M2 0h28l-2.547 28.751L15.969 32 4.55 28.749zm9.375 13l-.309-3.624 13.412.004.307-3.496L7.217 5.88l.931 10.68h12.168l-.435 4.568-3.88 1.072-3.94-1.08-.251-2.813H8.331l.44 5.561L16 25.801l7.172-1.924.992-10.876z"/></symbol><symbol id="javascript" viewBox="0 0 32 32"><path fill="var(--color15, #f7df1e)" d="M0 0h32v32H0zm29.379 24.368c-.233-1.46-1.184-2.687-4.004-3.831-.981-.46-2.072-.78-2.396-1.52-.121-.44-.14-.68-.061-.94.2-.861 1.22-1.12 2.02-.88.52.16 1 .56 1.301 1.2 1.379-.901 1.379-.901 2.34-1.5-.36-.56-.539-.801-.781-1.04-.84-.94-1.959-1.42-3.779-1.379l-.94.119c-.901.22-1.76.7-2.28 1.34-1.52 1.721-1.081 4.721.759 5.961 1.82 1.36 4.481 1.659 4.821 2.94.32 1.56-1.16 2.06-2.621 1.88-1.081-.24-1.68-.781-2.34-1.781l-2.44 1.401c.28.64.6.919 1.08 1.479 2.32 2.341 8.12 2.221 9.161-1.339.039-.12.32-.94.099-2.2zm-11.978-9.66h-2.997c0 2.584-.012 5.152-.012 7.74 0 1.643.084 3.151-.184 3.615-.44.919-1.573.801-2.088.64-.528-.261-.796-.621-1.107-1.14-.084-.14-.147-.261-.169-.261l-2.433 1.5c.407.84 1 1.563 1.765 2.023 1.14.68 2.672.9 4.276.54 1.044-.301 1.944-.921 2.415-1.881.68-1.24.536-2.76.529-4.461.016-2.739 0-5.479 0-8.239z"/></symbol><symbol id="react" viewBox="0 0 32 32"><path fill="var(--color16, #61dafb)" d="M16 13.148a2.852 2.852 0 000 5.704 2.852 2.852 0 000-5.704zm-7.989 8.525l-.629-.16C2.691 20.328.001 18.316.001 15.994s2.691-4.333 7.381-5.519l.629-.159.177.624a31.104 31.104 0 001.899 4.957l-.082-.186.135.284-.135.284a29.368 29.368 0 00-1.761 4.551l-.056.22zm-.922-9.74c-3.565 1.001-5.753 2.533-5.753 4.061 0 1.527 2.188 3.059 5.753 4.061a32.611 32.611 0 011.662-4.263l-.086.202a30.435 30.435 0 01-1.511-3.828l-.065-.234zm16.9 9.74l-.177-.625a30.782 30.782 0 00-1.9-4.954l.081.184-.135-.284.135-.284a29.456 29.456 0 001.762-4.55l.056-.221.177-.624.631.159c4.689 1.185 7.38 3.197 7.38 5.52s-2.691 4.333-7.38 5.519zm-.654-5.678a33.038 33.038 0 011.576 4.061c3.567-1.003 5.753-2.535 5.753-4.061 0-1.528-2.188-3.059-5.753-4.061a32.424 32.424 0 01-1.662 4.262l.086-.2zM7.08 11.927l-.177-.623C5.584 6.656 5.984 3.325 8 2.163c1.977-1.141 5.152.207 8.479 3.621l.453.465-.453.465a31.6 31.6 0 00-3.162 3.853l-.068.103-.18.257-.313.027a31.667 31.667 0 00-5.264.86l.218-.047zm2.528-8.84c-.357 0-.673.077-.94.231-1.325.764-1.56 3.42-.647 7.004a31.194 31.194 0 014.18-.658l.131-.01a33.328 33.328 0 012.756-3.414l-.02.022c-2.08-2.025-4.049-3.175-5.46-3.175zm12.785 27.149c-.001 0-.001 0 0 0-1.9 0-4.34-1.431-6.872-4.031l-.453-.465.453-.465a31.427 31.427 0 003.16-3.854l.068-.103.18-.257.312-.027a31.74 31.74 0 005.267-.858l-.218.046.629-.159.179.624c1.316 4.645.917 7.977-1.099 9.139a3.132 3.132 0 01-1.562.411h-.047.002zm-5.461-4.508c2.08 2.025 4.049 3.175 5.46 3.175h.001c.356 0 .673-.077.939-.231 1.325-.764 1.561-3.421.647-7.005a30.933 30.933 0 01-4.182.658l-.13.01a33.219 33.219 0 01-2.755 3.416l.02-.022zm7.988-13.801l-.629-.159c-1.453-.376-3.175-.664-4.939-.806l-.111-.007-.312-.027-.18-.257a31.57 31.57 0 00-3.237-3.966l.009.01-.453-.465.453-.465C18.846 2.372 22.02 1.024 24 2.164c2.016 1.163 2.416 4.493 1.099 9.14zm-5.253-2.274c1.523.139 2.969.364 4.312.668.915-3.584.679-6.24-.647-7.004-1.317-.761-3.793.405-6.4 2.944a33.376 33.376 0 012.666 3.289l.069.103zM9.608 30.236h-.046a3.153 3.153 0 01-1.577-.419l.015.008c-2.016-1.161-2.416-4.492-1.097-9.139l.176-.624.629.159c1.54.388 3.239.661 5.047.812l.313.027.179.257a31.521 31.521 0 003.239 3.967l-.01-.01.453.465-.453.465c-2.531 2.6-4.971 4.031-6.868 4.031zm-1.587-8.569c-.915 3.584-.679 6.241.647 7.005 1.316.751 3.791-.407 6.4-2.944a33.543 33.543 0 01-2.667-3.29l-.069-.103a33.315 33.315 0 01-4.534-.711l.224.043zm7.979.837c-1.097 0-2.225-.048-3.355-.141l-.313-.027-.18-.257a38.303 38.303 0 01-1.697-2.639l-.103-.19a36.12 36.12 0 01-1.45-2.728l-.105-.243-.133-.284.133-.284a38.537 38.537 0 011.658-3.161l-.103.191a40.4 40.4 0 011.8-2.829l.18-.257.313-.027a40.227 40.227 0 016.86.011l-.15-.011.312.027.179.257a39.103 39.103 0 013.252 5.56l.104.24.135.284-.135.284a39.328 39.328 0 01-3.439 5.925l.083-.125-.179.257-.312.027a41.083 41.083 0 01-3.356.141zm-2.929-1.445c1.973.148 3.885.148 5.86 0a37.57 37.57 0 002.827-4.836l.101-.228a37.891 37.891 0 00-3.012-5.19l.083.126a39.304 39.304 0 00-5.992.008l.134-.008a36.95 36.95 0 00-2.83 4.84l-.099.224a38.502 38.502 0 003.014 5.193l-.085-.13z"/></symbol><symbol id="one-finger-click" viewBox="0 0 32 32">
<path d="M13 1v4h1v-4h-1zM19.403 3.578l-3.109 2.516 0.628 0.778 3.109-2.519c0.003 0-0.628-0.775-0.628-0.775zM21.409 10.313l-3.897-0.9-0.225 0.975 3.897 0.9 0.225-0.975zM5.819 11.287l3.897-0.9-0.225-0.975-3.897 0.9 0.225 0.975zM6.969 4.353l3.109 2.519 0.628-0.778-3.109-2.519-0.628 0.778zM19 13.491c0-0.822-0.666-1.491-1.5-1.491-0.828 0-1.5 0.675-1.5 1.491v4.509h-1v-9.491c0-0.834-0.666-1.509-1.5-1.509-0.828 0-1.5 0.666-1.5 1.509v10.291c-2.059-2.2-4.769-4.619-5.878-3.503-1.087 1.094 1.716 4.106 5.625 10.688 1.766 2.966 3.994 5.016 7.753 5.016 4.141 0 7.5-3.359 7.5-7.5v-7.994c0-0.831-0.666-1.506-1.5-1.506-0.828 0-1.5 0.675-1.5 1.506v2.494h-1v-3.509c0-0.825-0.666-1.491-1.5-1.491-0.828 0-1.5 0.662-1.5 1.491v2.509h-1v-3.509z"></path>
</symbol><symbol id="sass" viewBox="0 0 32 32"><path fill="var(--color17, #c69)" d="M16 0c8.836 0 16 7.164 16 16s-7.164 16-16 16S0 24.836 0 16 7.164 0 16 0zm-3.18 21.331c.233.86.208 1.664-.032 2.389l-.087.24c-.032.081-.069.16-.104.235a4.492 4.492 0 01-.74 1.08c-.931 1.012-2.229 1.396-2.787 1.073-.6-.349-.301-1.78.779-2.92 1.161-1.224 2.827-2.012 2.827-2.012v-.004zM26.035 6.849c-.723-2.844-5.436-3.779-9.896-2.193-2.652.943-5.525 2.424-7.591 4.356-2.457 2.295-2.848 4.295-2.687 5.131.569 2.948 4.609 4.876 6.271 6.307v.008c-.489.24-4.075 2.039-4.915 3.9-.9 1.96.14 3.361.82 3.54 2.1.581 4.26-.48 5.42-2.199 1.12-1.681 1.021-3.841.539-4.901.661-.18 1.44-.26 2.44-.139 2.801.32 3.361 2.08 3.24 2.8-.12.719-.697 1.139-.899 1.259-.2.121-.26.16-.241.241.02.12.121.12.28.1.22-.04 1.461-.6 1.521-1.961.06-1.72-1.581-3.639-4.5-3.6-1.2.021-1.961.121-2.5.341a.479.479 0 00-.14-.14c-1.8-1.94-5.14-3.3-5-5.88.04-.94.38-3.419 6.4-6.419 4.94-2.461 8.881-1.78 9.561-.28.977 2.139-2.101 6.12-7.241 6.699-1.96.22-2.98-.539-3.241-.82-.279-.3-.319-.32-.419-.259-.16.08-.06.34 0 .5.16.4.78 1.1 1.861 1.46.939.3 3.24.479 6-.6 3.099-1.199 5.519-4.54 4.819-7.34z"/></symbol</defs></svg>